PathFileType	4	(X/Y/Z)	C:/Users/opensim2020/Desktop/walking_exp_matlab/subject03_walking04_straight_03.trc																																																																																																																																																							
DataRate	CameraRate	NumFrames	NumMarkers	Units	OrigDataRate	OrigDataStartFrame	OrigNumFrames																																																																																																																																																			
100	100	8	51	mm	100	2373	256																																																																																																																																																			
Frame#	Time	LFHD			RFHD			LBHD			RBHD			C7			T10			CLAV			STRN			RBAK			LSHO			LUPA			LELB			LFRM			LWRA			LWRB			LFIN			RSHO			RUPA			RELB			RFRM			RWRA			RWRB			RFIN			LASI			RASI			LPSI			RPSI			LTHI			LKNE			LTIB			LANK			LHEE			LTOE			RTHI			RKNE			RTIB			RANK			RHEE			RTOE			*39			*40			*41			*42			*43			*44			*45			*46			*47			*48			*49			*50		
		X1	Y1	Z1	X2	Y2	Z2	X3	Y3	Z3	X4	Y4	Z4	X5	Y5	Z5	X6	Y6	Z6	X7	Y7	Z7	X8	Y8	Z8	X9	Y9	Z9	X10	Y10	Z10	X11	Y11	Z11	X12	Y12	Z12	X13	Y13	Z13	X14	Y14	Z14	X15	Y15	Z15	X16	Y16	Z16	X17	Y17	Z17	X18	Y18	Z18	X19	Y19	Z19	X20	Y20	Z20	X21	Y21	Z21	X22	Y22	Z22	X23	Y23	Z23	X24	Y24	Z24	X25	Y25	Z25	X26	Y26	Z26	X27	Y27	Z27	X28	Y28	Z28	X29	Y29	Z29	X30	Y30	Z30	X31	Y31	Z31	X32	Y32	Z32	X33	Y33	Z33	X34	Y34	Z34	X35	Y35	Z35	X36	Y36	Z36	X37	Y37	Z37	X38	Y38	Z38	X39	Y39	Z39	X40	Y40	Z40	X41	Y41	Z41	X42	Y42	Z42	X43	Y43	Z43	X44	Y44	Z44	X45	Y45	Z45	X46	Y46	Z46	X47	Y47	Z47	X48	Y48	Z48	X49	Y49	Z49	X50	Y50	Z50	X51	Y51	Z51
																																																																																																																																																										
129	1.28	1.55822	1608.05444	-1246.62146	-22.98029	1612.43408	-1115.57324	-121.84084	1554.9762	-1264.79614	-141.05945	1559.33398	-1135.18103	-156.84904	1403.42773	-1209.54688	-195.9135	1090.98462	-1203.5094	-37.58073	1323.66382	-1192.94788	4.2413	1158.47705	-1197.22449	-224.09987	1229.3927	-1120.46069	-61.80935	1363.19312	-1351.15515	-22.04108	1178.05847	-1427.4325	25.8308	1066.26794	-1439.85461	110.3657	969.81549	-1425.55408	183.6886	883.58948	-1381.11401	168.29745	871.77747	-1432.84985	228.15289	816.62579	-1414.90393	-101.65179	1348.35754	-1039.27307	-130.97774	1127.23242	-968.18787	-128.46674	1014.76587	-951.73779	-125.39205	877.89978	-946.29895	-96.75089	779.48578	-975.422	-136.80643	778.13501	-937.41357	-120.56779	704.88812	-943.57068	-28.89802	926.06427	-1317.05457	-29.56432	924.94214	-1077.60522	-190.05519	951.52002	-1264.75146	-189.8555	951.17322	-1115.8269	-128.2756	631.40118	-1344.745	-165.42178	457.88614	-1302.82556	-260.05972	283.47406	-1300.87708	-327.07578	82.80308	-1254.36218	-373.23395	56.34011	-1218.13232	-181.77669	27.19463	-1229.51233	-26.67969	630.36877	-1029.10706	53.58076	469.00546	-1069.71008	68.33547	284.35895	-1066.73486	121.66288	73.30363	-1109.20752	92.78975	35.42487	-1167.79578	267.23981	60.93363	-1114.30676	NaN	NaN	NaN	NaN	NaN	NaN	NaN	NaN	NaN	NaN	NaN	NaN	NaN	NaN	NaN	NaN	NaN	NaN	NaN	NaN	NaN	NaN	NaN	NaN	NaN	NaN	NaN	NaN	NaN	NaN	NaN	NaN	NaN	NaN	NaN	NaN
130	1.29	11.36076	1607.1178	-1245.70007	-13.09106	1611.21289	-1114.66882	-112.13409	1554.29016	-1263.96277	-131.34212	1558.3999	-1134.27319	-147.21251	1402.29041	-1208.70447	-185.99728	1089.92371	-1202.26416	-27.77534	1322.66089	-1192.5105	14.10536	1157.4718	-1196.91003	-214.09517	1228.17041	-1119.60852	-52.63668	1362.05713	-1350.64673	-12.86169	1176.99158	-1426.93909	35.66904	1065.58057	-1439.51709	121.06394	970.11951	-1424.84558	195.30568	884.71393	-1379.87122	180.03995	872.57703	-1431.68616	240.63525	818.34772	-1413.54907	-91.63136	1347.20544	-1038.67078	-121.22226	1126.05273	-967.72742	-119.19881	1013.5675	-951.26996	-117.17764	876.65131	-945.83173	-89.74083	778.33472	-974.97955	-129.17766	776.96881	-936.90558	-113.5721	703.58734	-943.1424	-19.67882	925.08411	-1316.8429	-19.25011	923.58899	-1077.29565	-180.52876	950.60864	-1263.46277	-179.94638	950.24713	-1114.35974	-120.82706	631.03174	-1344.64624	-159.16537	457.4946	-1303.11365	-256.07858	284.25885	-1301.10913	-326.08719	84.51536	-1254.81995	-372.38226	58.45567	-1218.78589	-181.46153	27.40191	-1229.68237	-18.46075	628.67926	-1029.17517	61.20257	467.03345	-1069.94873	80.10043	283.65344	-1066.70764	139.05775	73.82039	-1109.03113	111.48846	35.56179	-1167.53662	285.68121	64.0575	-1113.99756	NaN	NaN	NaN	NaN	NaN	NaN	NaN	NaN	NaN	NaN	NaN	NaN	NaN	NaN	NaN	NaN	NaN	NaN	NaN	NaN	NaN	NaN	NaN	NaN	NaN	NaN	NaN	NaN	NaN	NaN	NaN	NaN	NaN	NaN	NaN	NaN
131	1.3	21.32689	1606.23743	-1244.77551	-3.14728	1610.13354	-1113.60535	-102.34082	1553.79297	-1263.09045	-121.55745	1557.62512	-1133.38721	-137.4189	1401.28687	-1207.84204	-175.90535	1088.86328	-1200.99036	-17.86228	1321.7019	-1192.00366	24.17459	1156.56323	-1196.60767	-203.83879	1226.96716	-1118.75293	-43.3836	1361.01538	-1350.12097	-3.76536	1175.90979	-1426.37134	45.20057	1064.62488	-1438.67419	131.41414	970.13458	-1424.06885	206.54639	885.72461	-1378.83386	191.27039	873.16602	-1430.47925	252.51857	819.75287	-1412.28711	-81.50174	1346.09998	-1037.87732	-111.21829	1124.94775	-967.21997	-109.67039	1012.38959	-950.82458	-108.48568	875.49255	-945.37958	-83.30531	776.35583	-974.52838	-121.19398	775.88251	-936.41321	-106.13899	702.31854	-942.75494	-10.24808	924.13684	-1316.47803	-8.77217	922.4101	-1076.90247	-170.8644	949.78223	-1262.15112	-169.55853	949.36835	-1113.0022	-113.14738	630.7066	-1344.51172	-152.57779	457.23865	-1303.3916	-251.94357	285.12671	-1301.42371	-324.90338	86.4808	-1255.31714	-371.54803	61.09266	-1219.47839	-181.42726	27.12211	-1229.60413	-10.02964	627.32513	-1029.66797	69.14191	465.37872	-1070.11975	90.91905	283.02097	-1066.5752	154.03172	73.96458	-1108.74072	127.19576	35.53867	-1167.34277	301.54868	66.12273	-1114.35217	-74.61235	1664.31628	-1209.90698	NaN	NaN	NaN	NaN	NaN	NaN	NaN	NaN	NaN	NaN	NaN	NaN	NaN	NaN	NaN	NaN	NaN	NaN	NaN	NaN	NaN	NaN	NaN	NaN	NaN	NaN	NaN	NaN	NaN	NaN	NaN	NaN	NaN
132	1.31	31.28802	1605.47583	-1243.76685	6.64664	1609.11194	-1112.65222	-92.57264	1553.39539	-1262.16992	-111.5724	1557.11804	-1132.47498	-127.46804	1400.328	-1206.92188	-165.72626	1087.94312	-1199.7981	-7.89756	1320.83044	-1191.33508	34.28345	1155.77087	-1196.13367	-193.56908	1225.82556	-1117.93469	-33.94373	1360.11316	-1349.56958	5.25408	1174.89172	-1425.76721	54.58587	1063.77332	-1438.203	141.34856	969.94244	-1423.03455	217.09851	886.16345	-1377.69543	202.06552	873.43512	-1429.38	263.78171	820.81952	-1411.08765	-71.23329	1345.1272	-1037.18872	-101.03024	1123.92261	-966.68079	-99.78488	1011.30841	-950.40912	-99.52691	874.39716	-944.914	-74.59585	775.24329	-973.86139	-112.88246	774.85492	-935.82251	-98.52371	701.04681	-942.45984	-0.71776	923.26654	-1316.14038	1.8065	921.46069	-1076.52576	-160.98241	948.99371	-1260.83081	-159.1489	948.7843	-1111.70313	-105.08266	630.43311	-1344.33765	-145.66846	456.94388	-1303.66382	-247.59511	286.14075	-1301.76306	-323.62704	88.55649	-1255.91406	-370.84442	64.06906	-1220.03235	-181.26366	27.12384	-1229.70471	-1.20602	626.3067	-1030.40051	77.60817	464.10535	-1070.23169	100.80173	282.26587	-1066.49426	166.3866	73.59583	-1108.51465	139.69429	34.99503	-1166.81909	314.39719	66.85768	-1115.5072	NaN	NaN	NaN	NaN	NaN	NaN	NaN	NaN	NaN	NaN	NaN	NaN	NaN	NaN	NaN	NaN	NaN	NaN	NaN	NaN	NaN	NaN	NaN	NaN	NaN	NaN	NaN	NaN	NaN	NaN	NaN	NaN	NaN	NaN	NaN	NaN
133	1.32	41.28995	1604.80847	-1242.78589	16.84846	1608.37061	-1111.62964	-82.7071	1553.18506	-1261.23584	-101.70668	1556.6936	-1131.5	-117.49849	1399.51904	-1205.96484	-155.29121	1087.07666	-1198.724	2.27199	1320.17249	-1190.7168	44.64869	1155.16809	-1195.67725	-183.14619	1224.80908	-1117.05444	-24.37716	1359.38049	-1349.00391	14.27037	1173.97375	-1425.19165	63.70171	1062.87537	-1437.23083	151.04523	969.67438	-1422.37134	227.42036	886.67694	-1376.74243	212.20064	873.5318	-1428.28406	274.50729	821.5683	-1409.97461	-60.95308	1344.18311	-1036.23645	-90.50449	1123.00574	-966.1571	-89.53992	1010.35046	-950.03748	-90.13611	873.37775	-944.43378	-66.01901	774.08783	-973.5304	-104.11419	773.97803	-935.24396	-90.36078	700.07587	-941.97583	8.96721	922.44507	-1315.39014	12.53633	920.72479	-1076.13391	-150.96393	948.28851	-1259.55701	-148.5161	948.29242	-1110.46423	-96.74664	630.1275	-1344.12134	-138.38185	456.79074	-1303.99304	-242.95427	287.24234	-1302.17737	-322.07913	90.83215	-1256.34338	-369.93887	67.2474	-1220.59167	-181.14572	27.02191	-1229.76611	8.33501	625.61469	-1030.93225	86.60711	463.30722	-1070.33984	110.01909	281.33118	-1066.4303	176.02451	72.63061	-1108.37646	148.97717	33.77323	-1166.23853	324.28052	66.22264	-1117.43958	NaN	NaN	NaN	NaN	NaN	NaN	NaN	NaN	NaN	NaN	NaN	NaN	NaN	NaN	NaN	NaN	NaN	NaN	NaN	NaN	NaN	NaN	NaN	NaN	NaN	NaN	NaN	NaN	NaN	NaN	NaN	NaN	NaN	NaN	NaN	NaN
134	1.33	51.30865	1604.2428	-1241.74194	26.96653	1607.62939	-1110.58032	-72.8305	1553.00293	-1260.21936	-91.81354	1556.36389	-1130.50586	-107.36691	1398.76233	-1204.9447	-144.75337	1086.27832	-1197.68408	12.5173	1319.63196	-1190.01428	55.07211	1154.66211	-1195.11145	-172.53094	1223.81323	-1116.08887	-14.69036	1358.77283	-1348.33484	23.18191	1173.05188	-1424.46777	72.66927	1062.0177	-1436.48975	160.312	969.21735	-1421.43665	237.23041	886.93616	-1375.80176	221.88713	873.30133	-1427.1709	284.60986	821.987	-1408.92712	-50.4586	1343.47986	-1035.48413	-79.83342	1122.19202	-965.58844	-79.05724	1009.50256	-949.61359	-80.49796	872.53296	-943.9975	-56.28357	773.36639	-973.42633	-95.06609	773.19391	-934.65594	-81.94448	699.13208	-941.5224	19.06755	921.60706	-1315.09082	23.4211	920.17615	-1075.59119	-140.64978	947.62262	-1258.46265	-137.83636	947.96802	-1109.29077	-88.11049	629.84235	-1343.96338	-130.71529	456.61185	-1304.3645	-237.9767	288.39362	-1302.57703	-320.64978	93.35148	-1257.10413	-368.63864	70.569	-1221.46716	-180.95908	26.95057	-1229.89233	18.72691	625.32184	-1031.27905	96.90491	462.7384	-1070.13757	118.74899	280.17331	-1066.27649	183.0901	71.00321	-1108.53638	154.87466	32.22088	-1166.03137	331.0853	63.88046	-1119.776	-43.31597	1663.6134	-1206.77527	NaN	NaN	NaN	NaN	NaN	NaN	NaN	NaN	NaN	NaN	NaN	NaN	NaN	NaN	NaN	NaN	NaN	NaN	NaN	NaN	NaN	NaN	NaN	NaN	NaN	NaN	NaN	NaN	NaN	NaN	NaN	NaN	NaN
135	1.34	61.40459	1603.74683	-1240.64941	36.7997	1606.90247	-1109.47473	-62.90351	1552.92664	-1259.23352	-81.86295	1556.14148	-1129.51563	-97.19994	1398.07629	-1203.95459	-133.96552	1085.56372	-1196.73828	22.81249	1319.16296	-1189.27319	65.48875	1154.29346	-1194.33948	-161.83849	1222.94116	-1115.08069	-4.8763	1358.32483	-1347.58411	32.04575	1172.34167	-1423.76379	81.57273	1061.30017	-1435.92859	169.32225	968.63116	-1420.67188	246.54408	886.81921	-1374.89185	231.08562	872.90491	-1426.10974	294.11874	822.03632	-1407.97461	-39.91215	1342.93408	-1034.62207	-69.02544	1121.50427	-964.99255	-68.29401	1008.75635	-949.19873	-70.49758	871.8313	-943.48596	-47.75592	772.38141	-972.8656	-85.59626	772.54102	-934.02679	-73.13914	698.3399	-941.05304	29.5054	920.8125	-1314.45972	34.45633	919.81702	-1075.00037	-130.07565	947.01605	-1257.38977	-126.90431	947.70599	-1108.29736	-79.09344	629.53918	-1343.68018	-122.60915	456.2829	-1304.71045	-232.69308	289.61835	-1303.01428	-318.8689	96.06411	-1257.76416	-367.31674	74.31184	-1222.16724	-180.75104	26.93062	-1229.99023	30.09618	625.40918	-1031.47729	107.34614	462.33487	-1070.22437	126.73829	278.78738	-1066.37354	187.61555	68.58627	-1109.25415	158.01796	30.73803	-1166.0448	335.2984	59.82085	-1122.3075	NaN	NaN	NaN	NaN	NaN	NaN	NaN	NaN	NaN	NaN	NaN	NaN	NaN	NaN	NaN	NaN	NaN	NaN	NaN	NaN	NaN	NaN	NaN	NaN	NaN	NaN	NaN	NaN	NaN	NaN	NaN	NaN	NaN	NaN	NaN	NaN
136	1.35	71.49111	1603.45032	-1239.62708	47.01421	1606.41663	-1108.40649	-52.94215	1552.92786	-1258.21326	-71.84545	1555.9292	-1128.52856	-87.05767	1397.48157	-1202.82471	-122.95364	1084.89392	-1195.89514	33.20499	1318.87024	-1188.48389	76.09356	1154.0282	-1193.68579	-150.99982	1222.09924	-1113.95837	5.02726	1358.02759	-1346.78308	41.05568	1171.65259	-1422.9729	90.13465	1060.42346	-1434.87708	177.95631	967.94928	-1419.79822	255.35759	886.284	-1373.89734	239.74486	872.2182	-1425.13757	303.01285	821.68762	-1407.04932	-29.31276	1342.39368	-1033.59937	-58.03552	1120.93713	-964.32013	-57.32095	1008.11823	-948.70825	-60.15904	871.21954	-943.01428	-38.04182	771.40997	-972.5531	-75.65819	772.00427	-933.41205	-63.66311	697.63672	-940.59558	40.16413	920.08826	-1313.80188	45.87634	919.58447	-1074.24121	-119.18625	946.48462	-1256.32861	-115.7773	947.4328	-1107.34778	-69.71479	629.19775	-1343.43982	-114.10674	455.98889	-1305.04431	-227.07811	290.85144	-1303.42603	-316.84787	98.938	-1258.44153	-365.57974	78.15981	-1222.96521	-180.50894	26.86404	-1230.08691	42.23803	625.76459	-1031.5282	117.68333	461.81836	-1070.41809	134.14609	277.31964	-1066.54041	190.45648	66.31131	-1110.17285	159.35777	28.83634	-1166.88928	337.33023	53.64825	-1124.83789	NaN	NaN	NaN	NaN	NaN	NaN	NaN	NaN	NaN	NaN	NaN	NaN	NaN	NaN	NaN	NaN	NaN	NaN	NaN	NaN	NaN	NaN	NaN	NaN	NaN	NaN	NaN	NaN	NaN	NaN	NaN	NaN	NaN	NaN	NaN	NaN
